<svg xmlns="http://www.w3.org/2000/svg" viewBox="0 0 600 200" width="600" height="200">
<defs>
<linearGradient id="bg" x1="0" y1="0" x2="1" y2="1"><stop offset="0%" stop-color="#0c4a6e"/><stop offset="50%" stop-color="#0369a1"/><stop offset="100%" stop-color="#0ea5e9"/></linearGradient>
<linearGradient id="drop" x1="0" y1="0" x2="0" y2="1"><stop offset="0%" stop-color="#fff" stop-opacity=".95"/><stop offset="100%" stop-color="#e0f2fe" stop-opacity=".85"/></linearGradient>
</defs>
<rect width="600" height="200" rx="20" fill="url(#bg)"/>
<circle cx="520" cy="-20" r="150" fill="rgba(255,255,255,.03)"/>
<circle cx="80" cy="220" r="120" fill="rgba(255,255,255,.02)"/>
<!-- Logo -->
<circle cx="100" cy="100" r="46" fill="rgba(255,255,255,.1)"/>
<circle cx="100" cy="100" r="42" fill="rgba(255,255,255,.08)"/>
<path d="M100 65C100 65 84 84 84 95C84 104 91 110 100 110C109 110 116 104 116 95C116 84 100 65 100 65Z" fill="url(#drop)" opacity=".9"/>
<text x="100" y="95" text-anchor="middle" font-family="Inter,sans-serif" font-size="16" font-weight="900" fill="#0369a1">MAI</text>
<text x="100" y="108" text-anchor="middle" font-family="sans-serif" font-size="10" font-weight="700" fill="#0284c7" opacity=".7">ماي</text>
<!-- Text -->
<text x="170" y="85" font-family="Inter,sans-serif" font-size="42" font-weight="900" fill="#fff" letter-spacing="-1">MAI</text>
<text x="262" y="85" font-family="sans-serif" font-size="28" font-weight="700" fill="rgba(255,255,255,.5)">ماي</text>
<text x="170" y="112" font-family="sans-serif" font-size="14" fill="rgba(255,255,255,.6)">Kuwait Water Delivery App</text>
<text x="170" y="135" font-family="sans-serif" font-size="14" fill="rgba(255,255,255,.4)">تطبيق توصيل المياه في الكويت 🇰🇼</text>
<!-- Badges -->
<rect x="170" y="148" width="80" height="22" rx="11" fill="rgba(255,255,255,.1)"/>
<text x="210" y="164" text-anchor="middle" font-family="sans-serif" font-size="10" fill="rgba(255,255,255,.7)" font-weight="600">10 Companies</text>
<rect x="260" y="148" width="75" height="22" rx="11" fill="rgba(255,255,255,.1)"/>
<text x="297" y="164" text-anchor="middle" font-family="sans-serif" font-size="10" fill="rgba(255,255,255,.7)" font-weight="600">68 Products</text>
<rect x="345" y="148" width="55" height="22" rx="11" fill="rgba(255,255,255,.1)"/>
<text x="372" y="164" text-anchor="middle" font-family="sans-serif" font-size="10" fill="rgba(255,255,255,.7)" font-weight="600">AR | EN</text>
</svg>