<svg xmlns="http://www.w3.org/2000/svg" width="375" height="700" viewBox="0 0 375 700">
<rect width="375" height="700" rx="20" fill="#f8fafc"/>
<text x="340" y="35" fill="#1e293b" font-family="sans-serif" font-size="20" font-weight="800" text-anchor="end">Checkout</text>
<text x="355" y="35" fill="#374151" font-size="18">←</text>
<!-- Address -->
<rect x="16" y="55" width="343" height="65" rx="14" fill="#fff" stroke="#f1f5f9"/>
<text x="340" y="78" fill="#6b7280" font-family="sans-serif" font-size="12" font-weight="700" text-anchor="end">📍 Delivery Address</text>
<text x="340" y="100" fill="#1e293b" font-family="sans-serif" font-size="13" font-weight="600" text-anchor="end">Salmiya, Block 12, Oman St.</text>
<!-- Payment -->
<rect x="16" y="132" width="343" height="195" rx="14" fill="#fff" stroke="#f1f5f9"/>
<text x="340" y="157" fill="#6b7280" font-family="sans-serif" font-size="12" font-weight="700" text-anchor="end">💳 Payment Method</text>
<rect x="28" y="170" width="319" height="36" rx="10" fill="#eff6ff" stroke="#3b82f6" stroke-width="1.5"/>
<text x="320" y="193" fill="#1e293b" font-family="sans-serif" font-size="13" font-weight="600" text-anchor="end">🏧 KNET</text>
<circle cx="46" cy="188" r="8" fill="#3b82f6"/><circle cx="46" cy="188" r="4" fill="#fff"/>
<rect x="28" y="212" width="319" height="36" rx="10" fill="#f9fafb" stroke="#f3f4f6"/>
<text x="320" y="235" fill="#1e293b" font-family="sans-serif" font-size="13" font-weight="600" text-anchor="end">💳 Credit Card</text>
<rect x="28" y="254" width="319" height="36" rx="10" fill="#f9fafb" stroke="#f3f4f6"/>
<text x="320" y="277" fill="#1e293b" font-family="sans-serif" font-size="13" font-weight="600" text-anchor="end"> Apple Pay</text>
<rect x="28" y="296" width="319" height="36" rx="10" fill="#f9fafb" stroke="#f3f4f6"/>
<text x="320" y="319" fill="#1e293b" font-family="sans-serif" font-size="13" font-weight="600" text-anchor="end">💵 Cash on Delivery</text>
<!-- Order Summary -->
<rect x="16" y="340" width="343" height="210" rx="14" fill="#fff" stroke="#f1f5f9"/>
<text x="340" y="365" fill="#6b7280" font-family="sans-serif" font-size="12" font-weight="700" text-anchor="end">📋 Order Summary</text>
<text x="32" y="392" fill="#1e293b" font-family="sans-serif" font-size="12">500ml Pack ×2</text>
<text x="340" y="392" fill="#1e293b" font-family="sans-serif" font-size="12" font-weight="600" text-anchor="end">2.500 KD</text>
<text x="32" y="416" fill="#1e293b" font-family="sans-serif" font-size="12">18.9L Gallon ×1</text>
<text x="340" y="416" fill="#1e293b" font-family="sans-serif" font-size="12" font-weight="600" text-anchor="end">0.750 KD</text>
<line x1="32" y1="432" x2="340" y2="432" stroke="#f3f4f6" stroke-width="1"/>
<text x="32" y="455" fill="#6b7280" font-family="sans-serif" font-size="12">Delivery</text>
<text x="340" y="455" fill="#059669" font-family="sans-serif" font-size="12" font-weight="600" text-anchor="end">Free ✓</text>
<text x="32" y="480" fill="#059669" font-family="sans-serif" font-size="12">Promo MAI10 (10%)</text>
<text x="340" y="480" fill="#059669" font-family="sans-serif" font-size="12" text-anchor="end">-0.325 KD</text>
<line x1="32" y1="496" x2="340" y2="496" stroke="#e5e7eb" stroke-width="2"/>
<text x="32" y="525" fill="#1e293b" font-family="sans-serif" font-size="16" font-weight="800">Total</text>
<text x="340" y="525" fill="#1e293b" font-family="sans-serif" font-size="16" font-weight="800" text-anchor="end">2.925 KD</text>
<!-- Points -->
<rect x="16" y="560" width="343" height="36" rx="12" fill="#fef3c7"/>
<text x="187" y="583" text-anchor="middle" fill="#92400e" font-family="sans-serif" font-size="12">⭐ Earn +29 points with this order!</text>
<!-- CTA -->
<rect x="16" y="620" width="343" height="52" rx="14" fill="#059669"/>
<text x="187" y="652" text-anchor="middle" fill="#fff" font-family="sans-serif" font-size="16" font-weight="800">Place Order — 2.925 KD</text>
</svg>
