<svg xmlns="http://www.w3.org/2000/svg" width="375" height="700" viewBox="0 0 375 700">
<rect width="375" height="700" rx="20" fill="#f8fafc"/>
<rect width="375" height="150" fill="#0ea5e9"/>
<text x="340" y="35" fill="rgba(255,255,255,.8)" font-family="sans-serif" font-size="12" text-anchor="end">← Back</text>
<text x="60" y="75" font-size="38">💧</text>
<text x="340" y="72" fill="#fff" font-family="sans-serif" font-size="20" font-weight="900" text-anchor="end">Abraaj Water</text>
<text x="340" y="95" fill="rgba(255,255,255,.8)" font-family="sans-serif" font-size="11" text-anchor="end">ISO 22000 &amp; NSF certified, 20+ years</text>
<text x="340" y="130" fill="rgba(255,255,255,.9)" font-family="sans-serif" font-size="11" text-anchor="end">⭐ 4.8 (2,840)  ·  🕐 25 min  ·  📦 Min: 2 KD</text>
<!-- Info Cards -->
<g transform="translate(16,160)">
<rect width="110" height="50" rx="10" fill="#fff" stroke="#f1f5f9"/><text x="55" y="20" text-anchor="middle" fill="#9ca3af" font-size="9">🕐 Hours</text><text x="55" y="38" text-anchor="middle" fill="#1e293b" font-size="11" font-weight="700">7AM-11PM</text>
<rect x="118" width="110" height="50" rx="10" fill="#fff" stroke="#f1f5f9"/><text x="173" y="20" text-anchor="middle" fill="#9ca3af" font-size="9">📞 Contact</text><text x="173" y="38" text-anchor="middle" fill="#1e293b" font-size="11" font-weight="700">1888030</text>
<rect x="236" width="110" height="50" rx="10" fill="#fff" stroke="#f1f5f9"/><text x="291" y="20" text-anchor="middle" fill="#9ca3af" font-size="9">📍 Area</text><text x="291" y="38" text-anchor="middle" fill="#1e293b" font-size="11" font-weight="700">All Kuwait</text>
</g>
<!-- Certs -->
<g transform="translate(16,220)">
<rect width="70" height="20" rx="10" fill="#ecfdf5" stroke="#d1fae5"/><text x="35" y="14" text-anchor="middle" fill="#059669" font-size="8" font-weight="600">✓ ISO 22000</text>
<rect x="78" width="55" height="20" rx="10" fill="#ecfdf5" stroke="#d1fae5"/><text x="105" y="14" text-anchor="middle" fill="#059669" font-size="8" font-weight="600">✓ HACCP</text>
<rect x="141" width="50" height="20" rx="10" fill="#ecfdf5" stroke="#d1fae5"/><text x="166" y="14" text-anchor="middle" fill="#059669" font-size="8" font-weight="600">✓ NSF</text>
</g>
<!-- Products -->
<text x="355" y="268" fill="#1e293b" font-family="sans-serif" font-size="14" font-weight="800" text-anchor="end">Products</text>
<rect x="16" y="280" width="343" height="70" rx="14" fill="#fff" stroke="#f1f5f9"/>
<text x="45" y="320" font-size="28" text-anchor="middle">💧</text>
<text x="330" y="305" fill="#1e293b" font-family="sans-serif" font-size="13" font-weight="700" text-anchor="end">500ml Pack (24)</text>
<text x="280" y="305" fill="#fef2f2" font-family="sans-serif" font-size="8"><tspan fill="#dc2626" font-weight="700">OFFER</tspan></text>
<text x="290" y="330" fill="#0ea5e9" font-family="sans-serif" font-size="15" font-weight="800" text-anchor="end">1.250 KD</text>
<text x="330" y="330" fill="#9ca3af" font-family="sans-serif" font-size="11" text-anchor="end" text-decoration="line-through">1.500</text>
<rect x="330" y="294" width="28" height="28" rx="8" fill="#0ea5e9"/><text x="344" y="313" text-anchor="middle" fill="#fff" font-size="14" font-weight="700">+</text>

<rect x="16" y="358" width="343" height="70" rx="14" fill="#fff" stroke="#f1f5f9"/>
<text x="45" y="398" font-size="28" text-anchor="middle">🪣</text>
<text x="330" y="383" fill="#1e293b" font-family="sans-serif" font-size="13" font-weight="700" text-anchor="end">18.9L Gallon</text>
<text x="280" y="383" fill="#eff6ff" font-family="sans-serif" font-size="8"><tspan fill="#2563eb" font-weight="700">BEST SELLER</tspan></text>
<text x="330" y="410" fill="#0ea5e9" font-family="sans-serif" font-size="15" font-weight="800" text-anchor="end">0.750 KD</text>
<rect x="330" y="372" width="28" height="28" rx="8" fill="#0ea5e9"/><text x="344" y="391" text-anchor="middle" fill="#fff" font-size="14" font-weight="700">+</text>

<rect x="16" y="436" width="343" height="70" rx="14" fill="#fff" stroke="#f1f5f9"/>
<text x="45" y="476" font-size="28" text-anchor="middle">🚰</text>
<text x="330" y="461" fill="#1e293b" font-family="sans-serif" font-size="13" font-weight="700" text-anchor="end">Smart Dispenser</text>
<text x="280" y="461" fill="#ecfdf5" font-family="sans-serif" font-size="8"><tspan fill="#059669" font-weight="700">NEW</tspan></text>
<text x="330" y="488" fill="#0ea5e9" font-family="sans-serif" font-size="15" font-weight="800" text-anchor="end">45.000 KD</text>
<rect x="330" y="450" width="28" height="28" rx="8" fill="#0ea5e9"/><text x="344" y="469" text-anchor="middle" fill="#fff" font-size="14" font-weight="700">+</text>

<!-- Floating Cart -->
<rect x="16" y="650" width="343" height="44" rx="14" fill="#0ea5e9"/>
<text x="50" y="677" fill="rgba(255,255,255,.9)" font-family="sans-serif" font-size="13" font-weight="700">🛒 3 items</text>
<text x="340" y="677" fill="#fff" font-family="sans-serif" font-size="15" font-weight="800" text-anchor="end">5.250 KD</text>
</svg>
