<svg xmlns="http://www.w3.org/2000/svg" width="375" height="700" viewBox="0 0 375 700">
<defs>
<linearGradient id="lbg" x1="0" y1="0" x2=".5" y2="1"><stop offset="0%" stop-color="#0c4a6e"/><stop offset="30%" stop-color="#0369a1"/><stop offset="60%" stop-color="#0ea5e9"/><stop offset="100%" stop-color="#38bdf8"/></linearGradient>
<linearGradient id="ld" x1="0" y1="0" x2="0" y2="1"><stop offset="0%" stop-color="#fff" stop-opacity=".95"/><stop offset="100%" stop-color="#e0f2fe" stop-opacity=".85"/></linearGradient>
</defs>
<rect width="375" height="700" rx="20" fill="url(#lbg)"/>
<circle cx="320" cy="80" r="180" fill="rgba(255,255,255,.03)"/>
<circle cx="50" cy="650" r="140" fill="rgba(255,255,255,.02)"/>
<!-- Lang toggle -->
<rect x="16" y="16" width="60" height="28" rx="8" fill="rgba(255,255,255,.12)"/>
<text x="46" y="35" text-anchor="middle" fill="rgba(255,255,255,.7)" font-size="11" font-weight="600">English</text>
<!-- Logo -->
<circle cx="187" cy="130" r="46" fill="rgba(255,255,255,.1)"/>
<path d="M187 95C187 95 171 114 171 125C171 134 178 140 187 140C196 140 203 134 203 125C203 114 187 95 187 95Z" fill="url(#ld)" opacity=".9"/>
<text x="187" y="125" text-anchor="middle" font-size="16" font-weight="900" fill="#0369a1">MAI</text>
<text x="187" y="138" text-anchor="middle" font-size="10" font-weight="700" fill="#0284c7" opacity=".7">ماي</text>
<!-- App name -->
<text x="187" y="195" text-anchor="middle" font-size="32" font-weight="900" fill="#fff" letter-spacing="-1">MAI</text>
<text x="187" y="224" text-anchor="middle" font-size="22" font-weight="800" fill="rgba(255,255,255,.6)">ماي</text>
<text x="187" y="248" text-anchor="middle" font-size="11" fill="rgba(255,255,255,.45)">Kuwait Water Delivery App 🇰🇼</text>
<!-- Login card -->
<rect x="24" y="274" width="327" height="290" rx="24" fill="rgba(255,255,255,.1)" stroke="rgba(255,255,255,.15)" stroke-width="1"/>
<text x="187" y="308" text-anchor="middle" font-size="15" font-weight="800" fill="#fff">تسجيل الدخول</text>
<!-- Phone field -->
<text x="330" y="336" text-anchor="end" font-size="10" fill="rgba(255,255,255,.5)" font-weight="600">رقم الهاتف</text>
<rect x="40" y="342" width="295" height="42" rx="12" fill="rgba(255,255,255,.08)" stroke="rgba(255,255,255,.15)" stroke-width="1.5"/>
<text x="56" y="368" font-size="12" fill="rgba(255,255,255,.3)" font-family="monospace">+965 xxxx xxxx</text>
<!-- Password field -->
<text x="330" y="404" text-anchor="end" font-size="10" fill="rgba(255,255,255,.5)" font-weight="600">كلمة المرور</text>
<rect x="40" y="410" width="295" height="42" rx="12" fill="rgba(255,255,255,.08)" stroke="rgba(255,255,255,.15)" stroke-width="1.5"/>
<text x="56" y="436" font-size="12" fill="rgba(255,255,255,.3)">••••••••</text>
<!-- Login button -->
<rect x="40" y="474" width="295" height="48" rx="14" fill="#fff"/>
<text x="187" y="504" text-anchor="middle" font-size="15" font-weight="800" fill="#0284c7">دخول</text>
<!-- Social -->
<text x="187" y="542" text-anchor="middle" font-size="10" fill="rgba(255,255,255,.3)">—— أو ——</text>
<rect x="40" y="552" width="142" height="40" rx="12" fill="rgba(255,255,255,.05)" stroke="rgba(255,255,255,.12)"/>
<text x="111" y="577" text-anchor="middle" font-size="11" fill="#fff" font-weight="600"> Apple</text>
<rect x="193" y="552" width="142" height="40" rx="12" fill="rgba(255,255,255,.05)" stroke="rgba(255,255,255,.12)"/>
<text x="264" y="577" text-anchor="middle" font-size="11" fill="#fff" font-weight="600">📱 SMS</text>
<!-- Demo credentials -->
<text x="187" y="618" text-anchor="middle" font-size="8" fill="rgba(255,255,255,.3)" letter-spacing="1">DEMO LOGIN</text>
<rect x="60" y="626" width="255" height="48" rx="12" fill="rgba(255,255,255,.06)" stroke="rgba(255,255,255,.1)" stroke-dasharray="4 2"/>
<text x="280" y="645" text-anchor="end" font-size="10" fill="rgba(255,255,255,.4)">Phone:</text>
<text x="155" y="645" font-size="10" fill="rgba(255,255,255,.75)" font-weight="600" font-family="monospace">+965 9999 9999</text>
<text x="280" y="662" text-anchor="end" font-size="10" fill="rgba(255,255,255,.4)">Pass:</text>
<text x="155" y="662" font-size="10" fill="rgba(255,255,255,.75)" font-weight="600" font-family="monospace">mai2026</text>
<!-- Footer -->
<text x="187" y="692" text-anchor="middle" font-size="8" fill="rgba(255,255,255,.25)">MAI v1.0 — @SiteQ8 · Ali AlEnezi</text>
</svg>