<svg xmlns="http://www.w3.org/2000/svg" viewBox="0 0 120 120" width="120" height="120">
<defs>
<linearGradient id="lg1" x1="0" y1="0" x2="1" y2="1"><stop offset="0%" stop-color="#38bdf8"/><stop offset="50%" stop-color="#0ea5e9"/><stop offset="100%" stop-color="#0369a1"/></linearGradient>
<linearGradient id="lg2" x1="0" y1="0" x2="0" y2="1"><stop offset="0%" stop-color="#fff" stop-opacity=".95"/><stop offset="100%" stop-color="#e0f2fe" stop-opacity=".85"/></linearGradient>
<filter id="ds"><feDropShadow dx="0" dy="3" stdDeviation="4" flood-color="#0369a1" flood-opacity=".3"/></filter>
</defs>
<circle cx="60" cy="60" r="56" fill="url(#lg1)" filter="url(#ds)"/>
<circle cx="60" cy="60" r="52" fill="none" stroke="rgba(255,255,255,.15)" stroke-width="1"/>
<circle cx="60" cy="60" r="48" fill="none" stroke="rgba(255,255,255,.08)" stroke-width="1"/>
<path d="M60 22C60 22 38 48 38 65C38 78 48 88 60 88C72 88 82 78 82 65C82 48 60 22 60 22Z" fill="url(#lg2)" opacity=".9"/>
<path d="M42 66C46 62 54 68 60 64C66 60 74 66 78 62" fill="none" stroke="#0ea5e9" stroke-width="2" stroke-linecap="round" opacity=".5"/>
<path d="M42 72C46 68 54 74 60 70C66 66 74 72 78 68" fill="none" stroke="#0ea5e9" stroke-width="1.5" stroke-linecap="round" opacity=".3"/>
<text x="60" y="62" text-anchor="middle" font-family="Inter,sans-serif" font-size="22" font-weight="900" fill="#0369a1" letter-spacing="-1">MAI</text>
<text x="60" y="80" text-anchor="middle" font-family="Tajawal,sans-serif" font-size="14" font-weight="700" fill="#0284c7" opacity=".7">ماي</text>
</svg>