<svg xmlns="http://www.w3.org/2000/svg" width="375" height="700" viewBox="0 0 375 700">
<rect width="375" height="700" rx="20" fill="#f8fafc"/>
<!-- Profile Card -->
<rect x="16" y="16" width="343" height="220" rx="20" fill="#1e293b"/>
<circle cx="187" cy="70" r="32" fill="#0ea5e9"/><text x="187" y="78" text-anchor="middle" fill="#fff" font-size="24">👤</text>
<text x="187" y="120" text-anchor="middle" fill="#fff" font-family="sans-serif" font-size="18" font-weight="900">Ali AlEnezi</text>
<rect x="143" y="130" width="90" height="22" rx="11" fill="rgba(148,163,184,.2)" stroke="rgba(148,163,184,.4)"/>
<text x="188" y="146" text-anchor="middle" fill="#94a3b8" font-size="10" font-weight="700">👑 Silver Member</text>
<!-- Stats -->
<g transform="translate(30,165)">
<rect width="95" height="50" rx="10" fill="rgba(255,255,255,.08)"/>
<text x="47" y="22" text-anchor="middle" fill="#fff" font-size="14" font-weight="900">⭐ 2,450</text>
<text x="47" y="38" text-anchor="middle" fill="rgba(255,255,255,.5)" font-size="8">Points</text>
<rect x="110" width="95" height="50" rx="10" fill="rgba(255,255,255,.08)"/>
<text x="157" y="22" text-anchor="middle" fill="#fff" font-size="14" font-weight="900">📦 47</text>
<text x="157" y="38" text-anchor="middle" fill="rgba(255,255,255,.5)" font-size="8">Orders</text>
<rect x="220" width="95" height="50" rx="10" fill="rgba(255,255,255,.08)"/>
<text x="267" y="22" text-anchor="middle" fill="#fff" font-size="14" font-weight="900">💰 28.7</text>
<text x="267" y="38" text-anchor="middle" fill="rgba(255,255,255,.5)" font-size="8">Saved KD</text>
</g>
<!-- Points Progress -->
<rect x="16" y="248" width="343" height="70" rx="14" fill="#fff" stroke="#f1f5f9"/>
<text x="32" y="272" fill="#1e293b" font-family="sans-serif" font-size="13" font-weight="700">Points Progress</text>
<text x="340" y="272" fill="#f59e0b" font-family="sans-serif" font-size="11" font-weight="700" text-anchor="end">⭐ 2,450 / 5,000</text>
<rect x="32" y="285" width="311" height="8" rx="4" fill="#f3f4f6"/><rect x="32" y="285" width="152" height="8" rx="4" fill="#f59e0b"/>
<text x="32" y="306" fill="#9ca3af" font-family="sans-serif" font-size="9">Redeem points for discounts</text>
<!-- Referral -->
<rect x="16" y="330" width="343" height="80" rx="14" fill="#fef3c7" stroke="#fcd34d"/>
<text x="50" y="362" font-size="24">🎁</text>
<text x="340" y="355" fill="#92400e" font-family="sans-serif" font-size="13" font-weight="700" text-anchor="end">Invite Friends</text>
<text x="340" y="375" fill="#a16207" font-family="sans-serif" font-size="10" text-anchor="end">Earn 500 points per referral!</text>
<rect x="100" y="385" width="180" height="22" rx="6" fill="#fff"/>
<text x="190" y="400" text-anchor="middle" fill="#92400e" font-family="monospace" font-size="14" font-weight="700">ALI2026</text>
<!-- Menu -->
<g transform="translate(16,422)">
<rect width="343" height="40" rx="12" fill="#fff" stroke="#f1f5f9"/><text x="320" y="26" fill="#1e293b" font-family="sans-serif" font-size="13" font-weight="600" text-anchor="end">📝 Edit Profile</text>
<rect y="48" width="343" height="40" rx="12" fill="#fff" stroke="#f1f5f9"/><text x="320" y="74" fill="#1e293b" font-family="sans-serif" font-size="13" font-weight="600" text-anchor="end">📍 My Addresses</text>
<rect y="96" width="343" height="40" rx="12" fill="#fff" stroke="#f1f5f9"/><text x="320" y="122" fill="#1e293b" font-family="sans-serif" font-size="13" font-weight="600" text-anchor="end">🔔 Notifications</text><circle cx="36" cy="116" r="8" fill="#ef4444"/><text x="36" y="120" text-anchor="middle" fill="#fff" font-size="8" font-weight="700">2</text>
<rect y="144" width="343" height="40" rx="12" fill="#fff" stroke="#f1f5f9"/><text x="320" y="170" fill="#1e293b" font-family="sans-serif" font-size="13" font-weight="600" text-anchor="end">❓ Help Center</text>
<rect y="192" width="343" height="40" rx="12" fill="#fff" stroke="#f1f5f9"/><text x="320" y="218" fill="#1e293b" font-family="sans-serif" font-size="13" font-weight="600" text-anchor="end">🌐 العربية</text>
</g>
<text x="187" y="680" text-anchor="middle" fill="#9ca3af" font-family="sans-serif" font-size="10">MAI v1.0 — Ali AlEnezi · @SiteQ8</text>
</svg>
